<svg xmlns="http://www.w3.org/2000/svg" xmlns:xlink="http://www.w3.org/1999/xlink" width="560" zoomAndPan="magnify" viewBox="0 0 420 74.999997" height="100" preserveAspectRatio="xMidYMid meet" version="1.0"><defs><g/><clipPath id="87dc182e20"><path d="M 6 9 L 72 9 L 72 68.785156 L 6 68.785156 Z M 6 9 " clip-rule="nonzero"/></clipPath><clipPath id="e6aadfd821"><path d="M 4 6.535156 L 70 6.535156 L 70 66 L 4 66 Z M 4 6.535156 " clip-rule="nonzero"/></clipPath></defs><g fill="#000000" fill-opacity="1"><g transform="translate(85.995351, 57.827802)"><g><path d="M 2.015625 -21.46875 C 2.015625 -25.695312 2.925781 -29.46875 4.75 -32.78125 C 6.582031 -36.09375 9.132812 -38.671875 12.40625 -40.515625 C 15.675781 -42.367188 19.390625 -43.296875 23.546875 -43.296875 C 28.617188 -43.296875 32.960938 -41.953125 36.578125 -39.265625 C 40.203125 -36.585938 42.625 -32.929688 43.84375 -28.296875 L 32.375 -28.296875 C 31.53125 -30.085938 30.320312 -31.445312 28.75 -32.375 C 27.1875 -33.3125 25.410156 -33.78125 23.421875 -33.78125 C 20.203125 -33.78125 17.597656 -32.660156 15.609375 -30.421875 C 13.617188 -28.191406 12.625 -25.207031 12.625 -21.46875 C 12.625 -17.726562 13.617188 -14.738281 15.609375 -12.5 C 17.597656 -10.257812 20.203125 -9.140625 23.421875 -9.140625 C 25.410156 -9.140625 27.1875 -9.609375 28.75 -10.546875 C 30.320312 -11.484375 31.53125 -12.847656 32.375 -14.640625 L 43.84375 -14.640625 C 42.625 -10.003906 40.203125 -6.351562 36.578125 -3.6875 C 32.960938 -1.019531 28.617188 0.3125 23.546875 0.3125 C 19.390625 0.3125 15.675781 -0.613281 12.40625 -2.46875 C 9.132812 -4.320312 6.582031 -6.894531 4.75 -10.1875 C 2.925781 -13.476562 2.015625 -17.238281 2.015625 -21.46875 Z M 2.015625 -21.46875 "/></g></g></g><g fill="#000000" fill-opacity="1"><g transform="translate(133.614905, 57.827802)"><g><path d="M 1.703125 -17.078125 C 1.703125 -20.566406 2.363281 -23.632812 3.6875 -26.28125 C 5.007812 -28.925781 6.804688 -30.957031 9.078125 -32.375 C 11.359375 -33.800781 13.898438 -34.515625 16.703125 -34.515625 C 19.109375 -34.515625 21.210938 -34.023438 23.015625 -33.046875 C 24.828125 -32.078125 26.222656 -30.800781 27.203125 -29.21875 L 27.203125 -34.03125 L 37.625 -34.03125 L 37.625 0 L 27.203125 0 L 27.203125 -4.8125 C 26.179688 -3.226562 24.765625 -1.945312 22.953125 -0.96875 C 21.148438 0 19.050781 0.484375 16.65625 0.484375 C 13.882812 0.484375 11.359375 -0.234375 9.078125 -1.671875 C 6.804688 -3.117188 5.007812 -5.171875 3.6875 -7.828125 C 2.363281 -10.492188 1.703125 -13.578125 1.703125 -17.078125 Z M 27.203125 -17.015625 C 27.203125 -19.617188 26.476562 -21.671875 25.03125 -23.171875 C 23.59375 -24.679688 21.835938 -25.4375 19.765625 -25.4375 C 17.691406 -25.4375 15.929688 -24.691406 14.484375 -23.203125 C 13.035156 -21.722656 12.3125 -19.679688 12.3125 -17.078125 C 12.3125 -14.472656 13.035156 -12.40625 14.484375 -10.875 C 15.929688 -9.351562 17.691406 -8.59375 19.765625 -8.59375 C 21.835938 -8.59375 23.59375 -9.34375 25.03125 -10.84375 C 26.476562 -12.351562 27.203125 -14.410156 27.203125 -17.015625 Z M 27.203125 -17.015625 "/></g></g></g><g fill="#000000" fill-opacity="1"><g transform="translate(176.173768, 57.827802)"><g><path d="M 14.203125 -45.125 L 14.203125 0 L 3.78125 0 L 3.78125 -45.125 Z M 14.203125 -45.125 "/></g></g></g><g fill="#000000" fill-opacity="1"><g transform="translate(195.319325, 57.827802)"><g><path d="M 1.703125 -17.015625 C 1.703125 -20.546875 2.421875 -23.632812 3.859375 -26.28125 C 5.304688 -28.925781 7.320312 -30.957031 9.90625 -32.375 C 12.488281 -33.800781 15.445312 -34.515625 18.78125 -34.515625 C 23.050781 -34.515625 26.617188 -33.394531 29.484375 -31.15625 C 32.347656 -28.925781 34.226562 -25.773438 35.125 -21.703125 L 24.03125 -21.703125 C 23.09375 -24.304688 21.28125 -25.609375 18.59375 -25.609375 C 16.6875 -25.609375 15.160156 -24.863281 14.015625 -23.375 C 12.878906 -21.894531 12.3125 -19.773438 12.3125 -17.015625 C 12.3125 -14.253906 12.878906 -12.128906 14.015625 -10.640625 C 15.160156 -9.160156 16.6875 -8.421875 18.59375 -8.421875 C 21.28125 -8.421875 23.09375 -9.71875 24.03125 -12.3125 L 35.125 -12.3125 C 34.226562 -8.332031 32.335938 -5.203125 29.453125 -2.921875 C 26.566406 -0.648438 23.007812 0.484375 18.78125 0.484375 C 15.445312 0.484375 12.488281 -0.222656 9.90625 -1.640625 C 7.320312 -3.066406 5.304688 -5.097656 3.859375 -7.734375 C 2.421875 -10.378906 1.703125 -13.472656 1.703125 -17.015625 Z M 1.703125 -17.015625 "/></g></g></g><g fill="#ab4d4d" fill-opacity="1"><g transform="translate(233.373973, 57.827802)"><g><path d="M 31.65625 -42.8125 L 31.65625 -34.453125 L 14.203125 -34.453125 L 14.203125 -25.4375 L 27.265625 -25.4375 L 27.265625 -17.3125 L 14.203125 -17.3125 L 14.203125 0 L 3.78125 0 L 3.78125 -42.8125 Z M 31.65625 -42.8125 "/></g></g></g><g fill="#ab4d4d" fill-opacity="1"><g transform="translate(267.884519, 57.827802)"><g><path d="M 19.265625 0.484375 C 15.929688 0.484375 12.929688 -0.222656 10.265625 -1.640625 C 7.609375 -3.066406 5.515625 -5.097656 3.984375 -7.734375 C 2.460938 -10.378906 1.703125 -13.472656 1.703125 -17.015625 C 1.703125 -20.515625 2.472656 -23.59375 4.015625 -26.25 C 5.566406 -28.914062 7.679688 -30.957031 10.359375 -32.375 C 13.046875 -33.800781 16.054688 -34.515625 19.390625 -34.515625 C 22.722656 -34.515625 25.726562 -33.800781 28.40625 -32.375 C 31.09375 -30.957031 33.207031 -28.914062 34.75 -26.25 C 36.300781 -23.59375 37.078125 -20.515625 37.078125 -17.015625 C 37.078125 -13.515625 36.289062 -10.429688 34.71875 -7.765625 C 33.15625 -5.109375 31.019531 -3.066406 28.3125 -1.640625 C 25.613281 -0.222656 22.597656 0.484375 19.265625 0.484375 Z M 19.265625 -8.53125 C 21.265625 -8.53125 22.960938 -9.257812 24.359375 -10.71875 C 25.765625 -12.1875 26.46875 -14.285156 26.46875 -17.015625 C 26.46875 -19.734375 25.785156 -21.820312 24.421875 -23.28125 C 23.054688 -24.75 21.378906 -25.484375 19.390625 -25.484375 C 17.359375 -25.484375 15.671875 -24.757812 14.328125 -23.3125 C 12.984375 -21.875 12.3125 -19.773438 12.3125 -17.015625 C 12.3125 -14.285156 12.972656 -12.1875 14.296875 -10.71875 C 15.617188 -9.257812 17.273438 -8.53125 19.265625 -8.53125 Z M 19.265625 -8.53125 "/></g></g></g><g fill="#ab4d4d" fill-opacity="1"><g transform="translate(307.88256, 57.827802)"><g><path d="M 14.203125 -28.359375 C 15.421875 -30.222656 16.945312 -31.691406 18.78125 -32.765625 C 20.613281 -33.847656 22.644531 -34.390625 24.875 -34.390625 L 24.875 -23.359375 L 22.015625 -23.359375 C 19.410156 -23.359375 17.457031 -22.796875 16.15625 -21.671875 C 14.851562 -20.554688 14.203125 -18.597656 14.203125 -15.796875 L 14.203125 0 L 3.78125 0 L 3.78125 -34.03125 L 14.203125 -34.03125 Z M 14.203125 -28.359375 "/></g></g></g><g fill="#ab4d4d" fill-opacity="1"><g transform="translate(335.137424, 57.827802)"><g><path d="M 16.703125 -34.515625 C 19.109375 -34.515625 21.210938 -34.023438 23.015625 -33.046875 C 24.828125 -32.078125 26.222656 -30.800781 27.203125 -29.21875 L 27.203125 -34.03125 L 37.625 -34.03125 L 37.625 -0.0625 C 37.625 3.070312 37.003906 5.910156 35.765625 8.453125 C 34.523438 10.992188 32.632812 13.015625 30.09375 14.515625 C 27.550781 16.015625 24.390625 16.765625 20.609375 16.765625 C 15.566406 16.765625 11.476562 15.578125 8.34375 13.203125 C 5.21875 10.828125 3.429688 7.601562 2.984375 3.53125 L 13.296875 3.53125 C 13.617188 4.832031 14.390625 5.859375 15.609375 6.609375 C 16.828125 7.367188 18.332031 7.75 20.125 7.75 C 22.28125 7.75 24 7.128906 25.28125 5.890625 C 26.5625 4.648438 27.203125 2.664062 27.203125 -0.0625 L 27.203125 -4.875 C 26.179688 -3.289062 24.773438 -2 22.984375 -1 C 21.203125 -0.0078125 19.109375 0.484375 16.703125 0.484375 C 13.898438 0.484375 11.359375 -0.234375 9.078125 -1.671875 C 6.804688 -3.117188 5.007812 -5.171875 3.6875 -7.828125 C 2.363281 -10.492188 1.703125 -13.578125 1.703125 -17.078125 C 1.703125 -20.566406 2.363281 -23.632812 3.6875 -26.28125 C 5.007812 -28.925781 6.804688 -30.957031 9.078125 -32.375 C 11.359375 -33.800781 13.898438 -34.515625 16.703125 -34.515625 Z M 27.203125 -17.015625 C 27.203125 -19.617188 26.476562 -21.671875 25.03125 -23.171875 C 23.59375 -24.679688 21.835938 -25.4375 19.765625 -25.4375 C 17.691406 -25.4375 15.929688 -24.691406 14.484375 -23.203125 C 13.035156 -21.722656 12.3125 -19.679688 12.3125 -17.078125 C 12.3125 -14.472656 13.035156 -12.40625 14.484375 -10.875 C 15.929688 -9.351562 17.691406 -8.59375 19.765625 -8.59375 C 21.835938 -8.59375 23.59375 -9.34375 25.03125 -10.84375 C 26.476562 -12.351562 27.203125 -14.410156 27.203125 -17.015625 Z M 27.203125 -17.015625 "/></g></g></g><g fill="#ab4d4d" fill-opacity="1"><g transform="translate(377.696285, 57.827802)"><g><path d="M 35.859375 -17.5625 C 35.859375 -16.582031 35.796875 -15.566406 35.671875 -14.515625 L 12.078125 -14.515625 C 12.234375 -12.398438 12.910156 -10.78125 14.109375 -9.65625 C 15.316406 -8.539062 16.796875 -7.984375 18.546875 -7.984375 C 21.140625 -7.984375 22.945312 -9.082031 23.96875 -11.28125 L 35.0625 -11.28125 C 34.5 -9.039062 33.472656 -7.023438 31.984375 -5.234375 C 30.503906 -3.453125 28.644531 -2.050781 26.40625 -1.03125 C 24.164062 -0.0195312 21.664062 0.484375 18.90625 0.484375 C 15.570312 0.484375 12.601562 -0.222656 10 -1.640625 C 7.394531 -3.066406 5.359375 -5.097656 3.890625 -7.734375 C 2.429688 -10.378906 1.703125 -13.472656 1.703125 -17.015625 C 1.703125 -20.546875 2.421875 -23.632812 3.859375 -26.28125 C 5.304688 -28.925781 7.332031 -30.957031 9.9375 -32.375 C 12.539062 -33.800781 15.53125 -34.515625 18.90625 -34.515625 C 22.195312 -34.515625 25.125 -33.820312 27.6875 -32.4375 C 30.25 -31.0625 32.25 -29.09375 33.6875 -26.53125 C 35.132812 -23.96875 35.859375 -20.976562 35.859375 -17.5625 Z M 25.1875 -20.3125 C 25.1875 -22.09375 24.578125 -23.507812 23.359375 -24.5625 C 22.140625 -25.625 20.613281 -26.15625 18.78125 -26.15625 C 17.03125 -26.15625 15.554688 -25.644531 14.359375 -24.625 C 13.160156 -23.613281 12.421875 -22.175781 12.140625 -20.3125 Z M 25.1875 -20.3125 "/></g></g></g><g clip-path="url(#87dc182e20)"><path fill="#eb6868" d="M 69.605469 52.660156 C 68.265625 52.371094 66.921875 53.171875 66.496094 54.476562 C 65.675781 57.007812 64.386719 59.152344 61.644531 59.695312 C 61.125 59.800781 60.601562 59.855469 60.070312 59.859375 C 58.5625 59.859375 57.417969 59.339844 56.566406 58.265625 C 53.464844 54.355469 55.226562 47.652344 55.992188 43.222656 L 55.996094 43.199219 C 56.925781 37.777344 58.289062 32.441406 59.398438 27.054688 C 59.859375 24.792969 60.261719 22.96875 60.589844 21.628906 C 60.925781 20.273438 61.136719 19.609375 61.253906 19.289062 L 67.285156 19.289062 C 67.613281 19.289062 67.9375 19.257812 68.257812 19.195312 C 68.582031 19.128906 68.894531 19.035156 69.199219 18.910156 C 69.5 18.785156 69.789062 18.628906 70.0625 18.449219 C 70.335938 18.265625 70.589844 18.058594 70.820312 17.828125 C 71.050781 17.59375 71.261719 17.339844 71.441406 17.070312 C 71.625 16.796875 71.777344 16.507812 71.90625 16.203125 C 72.03125 15.902344 72.125 15.589844 72.191406 15.265625 C 72.253906 14.945312 72.285156 14.617188 72.285156 14.289062 C 72.285156 13.960938 72.253906 13.636719 72.191406 13.316406 C 72.125 12.992188 72.03125 12.679688 71.90625 12.375 C 71.78125 12.074219 71.628906 11.785156 71.445312 11.511719 C 71.261719 11.238281 71.054688 10.984375 70.824219 10.753906 C 70.589844 10.519531 70.339844 10.3125 70.066406 10.128906 C 69.792969 9.949219 69.503906 9.792969 69.203125 9.667969 C 68.898438 9.542969 68.585938 9.445312 68.265625 9.382812 C 67.941406 9.316406 67.617188 9.285156 67.289062 9.285156 L 37.285156 9.269531 C 36.097656 9.269531 34.871094 9.242188 33.683594 9.214844 C 32.464844 9.1875 31.203125 9.160156 29.957031 9.160156 L 29.910156 9.160156 C 28.242188 9.160156 26.859375 9.207031 25.5625 9.3125 C 22.0625 9.59375 18.644531 10.703125 15.683594 12.515625 C 12.753906 14.304688 10.324219 16.78125 8.78125 19.863281 C 7.800781 21.824219 7.171875 23.921875 6.71875 26.058594 C 6.632812 26.453125 6.628906 26.847656 6.695312 27.246094 C 6.765625 27.640625 6.90625 28.011719 7.117188 28.355469 C 7.328125 28.695312 7.597656 28.988281 7.917969 29.226562 C 8.242188 29.464844 8.601562 29.636719 8.988281 29.738281 C 9.378906 29.839844 9.773438 29.863281 10.171875 29.8125 C 10.570312 29.761719 10.949219 29.640625 11.300781 29.441406 C 11.652344 29.246094 11.953125 28.992188 12.207031 28.679688 C 12.460938 28.367188 12.648438 28.019531 12.765625 27.636719 C 13.15625 26.359375 13.777344 24.855469 14.726562 23.757812 C 17.386719 20.6875 21.832031 18.976562 27.621094 18.785156 C 27.628906 19.644531 27.625 20.523438 27.601562 21.394531 C 27.554688 23.316406 27.429688 25.253906 27.230469 27.148438 C 27.03125 29.0625 26.75 30.953125 26.394531 32.777344 C 26.21875 33.679688 26.011719 34.601562 25.789062 35.511719 C 25.570312 36.402344 25.320312 37.296875 25.050781 38.171875 C 23.921875 41.832031 22.441406 45.023438 20.65625 47.660156 C 20.191406 48.335938 19.699219 49 19.183594 49.628906 C 19.082031 49.75 18.976562 49.875 18.871094 49.996094 C 18.085938 49.785156 17.285156 49.683594 16.472656 49.683594 C 11.355469 49.683594 7.210938 53.828125 7.210938 58.945312 C 7.210938 64.0625 11.355469 68.210938 16.472656 68.210938 C 16.792969 68.210938 17.113281 68.195312 17.429688 68.160156 C 18.457031 68.152344 19.4375 67.9375 20.375 67.519531 C 21.308594 67.101562 22.125 66.515625 22.816406 65.757812 C 22.964844 65.59375 23.121094 65.429688 23.273438 65.269531 C 23.554688 64.972656 23.839844 64.667969 24.113281 64.347656 L 24.421875 64.003906 L 24.585938 63.820312 L 24.746094 63.625 L 25.34375 62.90625 L 25.351562 62.894531 C 26.261719 61.757812 26.972656 60.792969 27.582031 59.859375 C 28.28125 58.808594 28.921875 57.75 29.480469 56.703125 L 29.484375 56.691406 C 29.5625 56.535156 29.644531 56.382812 29.726562 56.230469 C 29.917969 55.863281 30.121094 55.480469 30.300781 55.09375 C 30.511719 54.671875 30.703125 54.246094 30.890625 53.832031 C 30.941406 53.71875 30.992188 53.601562 31.046875 53.488281 L 31.050781 53.476562 L 31.09375 53.378906 C 31.304688 52.878906 31.523438 52.359375 31.722656 51.839844 L 31.746094 51.789062 C 31.84375 51.539062 31.945312 51.28125 32.039062 51.015625 C 32.070312 50.933594 32.097656 50.847656 32.128906 50.765625 C 32.195312 50.582031 32.265625 50.394531 32.332031 50.203125 C 32.714844 49.09375 33.058594 47.992188 33.351562 46.925781 C 33.664062 45.820312 33.917969 44.695312 34.148438 43.644531 L 34.320312 42.820312 L 34.472656 42.007812 C 34.507812 41.824219 34.539062 41.644531 34.566406 41.46875 C 34.582031 41.375 34.597656 41.28125 34.613281 41.191406 C 34.667969 40.890625 34.714844 40.589844 34.75 40.367188 C 35.378906 36.386719 35.683594 32.160156 35.6875 27.4375 C 35.6875 25.121094 35.632812 23.039062 35.515625 21.066406 C 35.492188 20.519531 35.457031 19.976562 35.425781 19.472656 L 35.410156 19.273438 L 48.878906 19.28125 C 48.871094 19.324219 48.863281 19.367188 48.855469 19.410156 C 48.8125 19.660156 48.769531 19.910156 48.722656 20.164062 L 48.121094 23.546875 C 48.078125 23.796875 48.035156 24.046875 47.996094 24.285156 C 47.972656 24.417969 47.953125 24.550781 47.929688 24.6875 L 47.171875 29.203125 C 46.972656 30.351562 46.789062 31.515625 46.613281 32.644531 C 46.554688 33.011719 46.496094 33.375 46.441406 33.742188 L 45.726562 38.273438 L 45.664062 38.671875 C 45.625 38.914062 45.585938 39.164062 45.546875 39.414062 L 45.378906 40.546875 L 45.214844 41.652344 L 45.042969 42.765625 L 45.027344 42.875 C 44.789062 44.375 44.546875 45.929688 44.363281 47.59375 C 44.289062 48.3125 44.203125 49.261719 44.167969 50.257812 C 44.132812 51.214844 44.148438 52.167969 44.210938 53.121094 C 44.328125 54.90625 44.753906 56.691406 45.472656 58.429688 C 46.179688 60.148438 47.136719 61.714844 48.335938 63.132812 C 50.890625 66.144531 54.25 68.007812 57.796875 68.378906 C 58.261719 68.429688 58.726562 68.457031 59.191406 68.457031 C 63 68.457031 66.113281 66.726562 68.445312 63.308594 C 69.300781 62.058594 70.050781 60.574219 70.691406 58.871094 C 71.03125 57.96875 71.339844 57 71.617188 55.972656 C 71.710938 55.621094 71.734375 55.261719 71.683594 54.898438 C 71.632812 54.535156 71.511719 54.199219 71.324219 53.886719 C 71.132812 53.574219 70.886719 53.308594 70.589844 53.097656 C 70.292969 52.882812 69.964844 52.738281 69.605469 52.660156 Z M 69.605469 52.660156 " fill-opacity="1" fill-rule="nonzero"/></g><g clip-path="url(#e6aadfd821)"><path fill="#000000" d="M 66.984375 50.042969 C 65.644531 49.75 64.300781 50.550781 63.875 51.855469 C 63.054688 54.386719 61.765625 56.53125 59.023438 57.074219 C 58.503906 57.179688 57.980469 57.234375 57.453125 57.238281 C 55.941406 57.238281 54.796875 56.71875 53.945312 55.648438 C 50.84375 51.734375 52.609375 45.03125 53.371094 40.601562 L 53.375 40.578125 C 54.304688 35.15625 55.671875 29.820312 56.777344 24.433594 C 57.238281 22.171875 57.640625 20.347656 57.96875 19.007812 C 58.304688 17.652344 58.515625 16.988281 58.636719 16.667969 L 64.664062 16.671875 C 64.992188 16.671875 65.316406 16.636719 65.640625 16.574219 C 65.960938 16.511719 66.273438 16.414062 66.578125 16.289062 C 66.878906 16.164062 67.167969 16.011719 67.441406 15.828125 C 67.714844 15.644531 67.96875 15.4375 68.199219 15.207031 C 68.433594 14.972656 68.640625 14.722656 68.820312 14.449219 C 69.003906 14.175781 69.160156 13.886719 69.285156 13.585938 C 69.410156 13.28125 69.503906 12.96875 69.570312 12.644531 C 69.632812 12.324219 69.667969 12 69.667969 11.671875 C 69.667969 11.34375 69.632812 11.015625 69.570312 10.695312 C 69.507812 10.371094 69.410156 10.058594 69.285156 9.757812 C 69.160156 9.453125 69.007812 9.164062 68.824219 8.890625 C 68.644531 8.617188 68.4375 8.367188 68.203125 8.132812 C 67.972656 7.902344 67.71875 7.691406 67.445312 7.511719 C 67.171875 7.328125 66.886719 7.171875 66.582031 7.046875 C 66.277344 6.921875 65.964844 6.828125 65.644531 6.761719 C 65.320312 6.699219 64.996094 6.664062 64.667969 6.664062 L 34.664062 6.648438 C 33.480469 6.648438 32.253906 6.621094 31.0625 6.59375 C 29.84375 6.570312 28.582031 6.539062 27.335938 6.539062 L 27.289062 6.539062 C 25.621094 6.539062 24.238281 6.589844 22.945312 6.691406 C 19.441406 6.976562 16.023438 8.082031 13.0625 9.894531 C 10.132812 11.6875 7.707031 14.164062 6.160156 17.242188 C 5.179688 19.203125 4.550781 21.300781 4.097656 23.441406 C 4.015625 23.835938 4.007812 24.230469 4.074219 24.625 C 4.144531 25.023438 4.285156 25.390625 4.496094 25.734375 C 4.707031 26.078125 4.976562 26.367188 5.300781 26.605469 C 5.621094 26.847656 5.980469 27.015625 6.367188 27.117188 C 6.757812 27.21875 7.152344 27.246094 7.550781 27.195312 C 7.953125 27.144531 8.328125 27.019531 8.679688 26.824219 C 9.03125 26.628906 9.332031 26.375 9.585938 26.0625 C 9.839844 25.75 10.027344 25.402344 10.144531 25.015625 C 10.535156 23.738281 11.160156 22.234375 12.105469 21.140625 C 14.765625 18.066406 19.210938 16.355469 25 16.164062 C 25.007812 17.027344 25.003906 17.902344 24.980469 18.777344 C 24.933594 20.699219 24.808594 22.632812 24.609375 24.527344 C 24.410156 26.441406 24.128906 28.335938 23.773438 30.15625 C 23.597656 31.058594 23.390625 31.980469 23.167969 32.894531 C 22.949219 33.785156 22.699219 34.679688 22.429688 35.554688 C 21.300781 39.210938 19.824219 42.40625 18.035156 45.042969 C 17.574219 45.71875 17.078125 46.382812 16.5625 47.007812 C 16.460938 47.132812 16.355469 47.253906 16.25 47.378906 C 15.464844 47.167969 14.664062 47.0625 13.851562 47.0625 C 8.734375 47.0625 4.589844 51.210938 4.589844 56.328125 C 4.589844 61.441406 8.734375 65.589844 13.851562 65.589844 C 14.171875 65.589844 14.492188 65.574219 14.8125 65.539062 C 15.835938 65.53125 16.816406 65.316406 17.753906 64.898438 C 18.691406 64.484375 19.503906 63.894531 20.195312 63.136719 C 20.347656 62.972656 20.503906 62.808594 20.65625 62.648438 C 20.933594 62.355469 21.222656 62.050781 21.496094 61.726562 L 21.800781 61.382812 L 21.964844 61.199219 L 22.128906 61.003906 L 22.722656 60.285156 L 22.734375 60.273438 C 23.644531 59.136719 24.351562 58.171875 24.960938 57.238281 C 25.660156 56.191406 26.300781 55.128906 26.859375 54.082031 L 26.867188 54.070312 C 26.945312 53.917969 27.027344 53.761719 27.105469 53.609375 C 27.300781 53.242188 27.5 52.863281 27.683594 52.472656 C 27.890625 52.050781 28.082031 51.625 28.269531 51.210938 C 28.320312 51.097656 28.375 50.984375 28.425781 50.867188 L 28.433594 50.855469 L 28.472656 50.757812 C 28.683594 50.257812 28.902344 49.738281 29.101562 49.222656 L 29.125 49.167969 C 29.222656 48.917969 29.328125 48.660156 29.417969 48.394531 C 29.449219 48.3125 29.480469 48.230469 29.511719 48.144531 C 29.578125 47.964844 29.644531 47.773438 29.710938 47.582031 C 30.09375 46.472656 30.441406 45.371094 30.730469 44.304688 C 31.042969 43.199219 31.300781 42.074219 31.527344 41.023438 L 31.699219 40.203125 L 31.851562 39.386719 C 31.886719 39.203125 31.917969 39.023438 31.949219 38.847656 C 31.964844 38.753906 31.976562 38.664062 31.996094 38.570312 C 32.050781 38.269531 32.097656 37.972656 32.132812 37.746094 C 32.757812 33.765625 33.0625 29.539062 33.066406 24.820312 C 33.066406 22.503906 33.011719 20.417969 32.898438 18.445312 C 32.875 17.898438 32.839844 17.359375 32.804688 16.851562 L 32.792969 16.652344 L 46.261719 16.660156 C 46.253906 16.703125 46.246094 16.746094 46.238281 16.789062 C 46.191406 17.039062 46.148438 17.289062 46.101562 17.542969 L 45.503906 20.929688 C 45.457031 21.175781 45.417969 21.425781 45.375 21.667969 C 45.355469 21.800781 45.332031 21.933594 45.308594 22.066406 L 44.550781 26.585938 C 44.355469 27.734375 44.171875 28.898438 43.992188 30.023438 C 43.9375 30.390625 43.878906 30.757812 43.820312 31.125 L 43.105469 35.652344 L 43.042969 36.050781 C 43.003906 36.292969 42.964844 36.546875 42.929688 36.792969 L 42.761719 37.925781 L 42.597656 39.03125 L 42.425781 40.144531 L 42.40625 40.25 C 42.171875 41.753906 41.925781 43.308594 41.746094 44.972656 C 41.671875 45.6875 41.582031 46.636719 41.546875 47.636719 C 41.511719 48.589844 41.527344 49.542969 41.589844 50.496094 C 41.710938 52.285156 42.136719 54.070312 42.851562 55.808594 C 43.5625 57.523438 44.515625 59.089844 45.714844 60.507812 C 48.269531 63.519531 51.628906 65.382812 55.175781 65.757812 C 55.640625 65.808594 56.105469 65.832031 56.570312 65.835938 C 60.378906 65.835938 63.492188 64.101562 65.824219 60.6875 C 66.679688 59.433594 67.433594 57.953125 68.070312 56.25 C 68.410156 55.34375 68.71875 54.378906 68.996094 53.351562 C 69.089844 52.996094 69.113281 52.640625 69.0625 52.277344 C 69.011719 51.914062 68.890625 51.578125 68.703125 51.265625 C 68.511719 50.953125 68.265625 50.6875 67.96875 50.476562 C 67.671875 50.265625 67.34375 50.121094 66.984375 50.042969 Z M 66.984375 50.042969 " fill-opacity="1" fill-rule="nonzero"/></g></svg>