<?xml version="1.0" encoding="UTF-8" standalone="no"?><!DOCTYPE svg PUBLIC "-//W3C//DTD SVG 1.1//EN" "http://www.w3.org/Graphics/SVG/1.1/DTD/svg11.dtd"><svg width="100%" height="100%" viewBox="0 0 900 219" version="1.1" xmlns="http://www.w3.org/2000/svg" xmlns:xlink="http://www.w3.org/1999/xlink" xml:space="preserve" xmlns:serif="http://www.serif.com/" style="fill-rule:evenodd;clip-rule:evenodd;stroke-linejoin:round;stroke-miterlimit:2;"><g><path d="M49.874,11.077c14.473,-7.094 30.74,-11.077 47.93,-11.077c20.808,0 40.06,7.421 54.516,20.364c25.596,22.916 26.312,57.466 26.312,57.466l16.681,-16.445l0,31.102c-29.402,29.389 -64.856,64.733 -70.246,70.123c-13.21,13.21 -34.66,13.21 -47.87,0c-13.21,-13.21 -13.21,-34.66 0,-47.87c9.491,-9.49 11.521,-11.417 28.297,-28.296c5.192,-5.224 5.166,-13.68 -0.058,-18.872c-5.224,-5.192 -13.68,-5.166 -18.872,0.058c-16.742,16.844 -18.768,18.767 -28.239,28.238c-23.626,23.626 -23.626,61.988 0,85.614c23.626,23.626 61.988,23.626 85.614,0c4.267,-4.267 27.345,-27.277 51.374,-51.271l0,28.784l-47.181,47.181c-15.177,7.724 -32.343,12.087 -50.328,12.087c-27.727,0 -48.743,-11.592 -63.873,-32.404c-17.232,-23.702 -14.829,-46.355 -14.829,-46.355c-0,0 -17.798,18.933 -19.102,18.024l0,-32.453c25.31,-25.342 63.188,-63.067 69.542,-69.422c13.21,-13.21 34.66,-13.21 47.87,0c13.21,13.21 13.21,34.66 0,47.87c-9.491,9.491 -11.521,11.418 -28.297,28.297c-5.191,5.224 -5.165,13.68 0.058,18.872c5.224,5.192 13.681,5.166 18.872,-0.058c16.742,-16.845 18.768,-18.768 28.239,-28.239c23.626,-23.626 23.626,-61.988 0,-85.614c-23.626,-23.625 -61.988,-23.625 -85.614,0c-4.899,4.899 -28.497,28.408 -50.67,50.555l-0,-26.385l49.874,-49.874Z" style="fill:url(#_Linear1);"/><g><path d="M366.791,162.766c-6.06,5.212 -12.848,9.212 -20.363,12c-7.514,2.788 -15.302,4.181 -23.362,4.181c-6.182,0 -12.136,-0.803 -17.863,-2.409c-5.728,-1.606 -11.091,-3.878 -16.091,-6.817c-5,-2.94 -9.56,-6.47 -13.681,-10.591c-4.121,-4.121 -7.651,-8.682 -10.591,-13.681c-2.939,-5 -5.212,-10.364 -6.818,-16.091c-1.606,-5.727 -2.409,-11.681 -2.409,-17.863c0,-6.181 0.803,-12.151 2.409,-17.908c1.606,-5.758 3.879,-11.136 6.818,-16.136c2.94,-5 6.47,-9.56 10.591,-13.681c4.121,-4.121 8.681,-7.652 13.681,-10.591c5,-2.939 10.363,-5.212 16.091,-6.818c5.727,-1.606 11.681,-2.409 17.863,-2.409c8.06,0 15.848,1.379 23.362,4.136c7.515,2.758 14.303,6.773 20.363,12.045l-13.817,22.727c-3.818,-4.121 -8.333,-7.288 -13.545,-9.5c-5.212,-2.212 -10.667,-3.318 -16.363,-3.318c-5.758,0 -11.152,1.091 -16.182,3.273c-5.03,2.181 -9.424,5.136 -13.181,8.863c-3.758,3.727 -6.727,8.121 -8.909,13.181c-2.182,5.061 -3.272,10.439 -3.272,16.136c-0,5.697 1.09,11.045 3.272,16.045c2.182,5 5.151,9.379 8.909,13.136c3.757,3.758 8.151,6.727 13.181,8.909c5.03,2.182 10.424,3.272 16.182,3.272c5.696,0 11.151,-1.106 16.363,-3.318c5.212,-2.212 9.727,-5.378 13.545,-9.499l13.817,22.726Z" style="fill-rule:nonzero;"/><path d="M408.517,52.315c0,2.303 -0.439,4.455 -1.318,6.455c-0.879,2 -2.076,3.742 -3.591,5.227c-1.515,1.485 -3.288,2.666 -5.318,3.545c-2.03,0.879 -4.197,1.318 -6.5,1.318c-2.302,0 -4.469,-0.439 -6.499,-1.318c-2.031,-0.879 -3.788,-2.06 -5.273,-3.545c-1.485,-1.485 -2.666,-3.227 -3.545,-5.227c-0.879,-2 -1.318,-4.152 -1.318,-6.455c-0,-2.242 0.439,-4.378 1.318,-6.408c0.879,-2.031 2.06,-3.788 3.545,-5.273c1.485,-1.485 3.242,-2.667 5.273,-3.545c2.03,-0.879 4.197,-1.318 6.499,-1.318c2.303,-0 4.47,0.439 6.5,1.318c2.03,0.878 3.803,2.06 5.318,3.545c1.515,1.485 2.712,3.242 3.591,5.273c0.879,2.03 1.318,4.166 1.318,6.408Zm-4.272,123.814l-25,0l0,-97.36l25,0l-0,97.36Z" style="fill-rule:nonzero;"/><path d="M450.788,176.129l-37.089,-97.36l28.272,0l21.272,60.725l21.181,-60.725l28.362,0l-37.089,97.36l-24.909,0Z" style="fill-rule:nonzero;"/><path d="M551.512,52.315c0,2.303 -0.439,4.455 -1.318,6.455c-0.879,2 -2.076,3.742 -3.591,5.227c-1.515,1.485 -3.287,2.666 -5.318,3.545c-2.03,0.879 -4.197,1.318 -6.499,1.318c-2.303,0 -4.47,-0.439 -6.5,-1.318c-2.03,-0.879 -3.788,-2.06 -5.273,-3.545c-1.485,-1.485 -2.666,-3.227 -3.545,-5.227c-0.879,-2 -1.318,-4.152 -1.318,-6.455c-0,-2.242 0.439,-4.378 1.318,-6.408c0.879,-2.031 2.06,-3.788 3.545,-5.273c1.485,-1.485 3.243,-2.667 5.273,-3.545c2.03,-0.879 4.197,-1.318 6.5,-1.318c2.302,-0 4.469,0.439 6.499,1.318c2.031,0.878 3.803,2.06 5.318,3.545c1.515,1.485 2.712,3.242 3.591,5.273c0.879,2.03 1.318,4.166 1.318,6.408Zm-4.272,123.814l-24.999,0l-0,-97.36l24.999,0l-0,97.36Z" style="fill-rule:nonzero;"/><rect x="566.148" y="40.043" width="24.999" height="136.086" style="fill-rule:nonzero;"/><path d="M663.508,176.129l-56.725,0l0,-24.726l56.725,-0c1.697,-0 3.152,-0.606 4.364,-1.818c1.212,-1.212 1.818,-2.667 1.818,-4.364c-0,-1.757 -0.606,-2.909 -1.818,-3.454c-1.212,-0.546 -2.667,-0.818 -4.364,-0.818l-25.817,-0c-4.303,-0 -8.333,-0.818 -12.09,-2.455c-3.758,-1.636 -7.03,-3.863 -9.818,-6.681c-2.788,-2.818 -4.985,-6.106 -6.591,-9.864c-1.606,-3.757 -2.409,-7.787 -2.409,-12.09c0,-4.303 0.803,-8.333 2.409,-12.091c1.606,-3.757 3.803,-7.03 6.591,-9.817c2.788,-2.788 6.06,-4.985 9.818,-6.591c3.757,-1.606 7.787,-2.409 12.09,-2.409l50.271,-0l0,24.726l-50.271,0c-1.697,0 -3.151,0.606 -4.363,1.818c-1.212,1.213 -1.819,2.667 -1.819,4.364c0,1.757 0.607,3.257 1.819,4.5c1.212,1.242 2.666,1.863 4.363,1.863l25.817,0c4.243,0 8.242,0.712 12,2.137c3.757,1.424 7.03,3.409 9.818,5.954c2.788,2.545 5,5.606 6.636,9.181c1.636,3.576 2.454,7.485 2.454,11.727c0,4.303 -0.818,8.318 -2.454,12.045c-1.636,3.728 -3.848,7 -6.636,9.818c-2.788,2.818 -6.061,5.03 -9.818,6.636c-3.758,1.606 -7.757,2.409 -12,2.409Z" style="fill-rule:nonzero;"/><path d="M738.142,166.857c0,2.182 -0.394,4.227 -1.182,6.136c-0.787,1.909 -1.878,3.561 -3.272,4.955c-1.394,1.393 -3.03,2.499 -4.909,3.318c-1.879,0.818 -3.909,1.227 -6.091,1.227c-2.121,-0 -4.136,-0.409 -6.045,-1.227c-1.909,-0.819 -3.576,-1.925 -5,-3.318c-1.424,-1.394 -2.545,-3.046 -3.363,-4.955c-0.819,-1.909 -1.228,-3.954 -1.228,-6.136c0,-2.121 0.409,-4.121 1.228,-6c0.818,-1.879 1.939,-3.515 3.363,-4.909c1.424,-1.394 3.091,-2.5 5,-3.318c1.909,-0.818 3.924,-1.227 6.045,-1.227c2.182,-0 4.212,0.409 6.091,1.227c1.879,0.818 3.515,1.924 4.909,3.318c1.394,1.394 2.485,3.03 3.272,4.909c0.788,1.879 1.182,3.879 1.182,6Z" style="fill-rule:nonzero;"/><path d="M850.866,176.129l-6,0l-9.636,-13.363c-2.364,2.121 -4.864,4.106 -7.5,5.955c-2.636,1.848 -5.409,3.454 -8.318,4.818c-2.909,1.363 -5.894,2.439 -8.954,3.227c-3.061,0.788 -6.167,1.182 -9.318,1.182c-6.848,-0 -13.287,-1.152 -19.318,-3.455c-6.03,-2.303 -11.302,-5.651 -15.817,-10.045c-4.515,-4.394 -8.076,-9.772 -10.682,-16.136c-2.606,-6.363 -3.909,-13.605 -3.909,-21.726c0,-7.576 1.303,-14.53 3.909,-20.863c2.606,-6.333 6.167,-11.773 10.682,-16.318c4.515,-4.545 9.787,-8.075 15.817,-10.59c6.031,-2.516 12.47,-3.773 19.318,-3.773c3.151,-0 6.272,0.394 9.363,1.182c3.091,0.788 6.091,1.878 9,3.272c2.909,1.394 5.682,3.031 8.318,4.909c2.636,1.879 5.106,3.909 7.409,6.091l9.636,-11.545l6,-0l-0,97.178Zm-25,-49.543c0,-3.394 -0.651,-6.682 -1.954,-9.864c-1.303,-3.181 -3.076,-5.999 -5.318,-8.454c-2.242,-2.454 -4.864,-4.424 -7.863,-5.909c-3,-1.485 -6.197,-2.227 -9.591,-2.227c-3.394,0 -6.591,0.576 -9.591,1.727c-3,1.152 -5.605,2.849 -7.818,5.091c-2.212,2.242 -3.954,5.015 -5.227,8.318c-1.272,3.303 -1.909,7.075 -1.909,11.318c0,4.242 0.637,8.015 1.909,11.317c1.273,3.303 3.015,6.076 5.227,8.318c2.213,2.243 4.818,3.94 7.818,5.091c3,1.152 6.197,1.727 9.591,1.727c3.394,0 6.591,-0.742 9.591,-2.227c2.999,-1.485 5.621,-3.454 7.863,-5.909c2.242,-2.454 4.015,-5.272 5.318,-8.454c1.303,-3.182 1.954,-6.47 1.954,-9.863Z" style="fill-rule:nonzero;"/><path d="M899.046,52.315c-0,2.303 -0.44,4.455 -1.318,6.455c-0.879,2 -2.076,3.742 -3.591,5.227c-1.515,1.485 -3.288,2.666 -5.318,3.545c-2.03,0.879 -4.197,1.318 -6.5,1.318c-2.303,0 -4.47,-0.439 -6.5,-1.318c-2.03,-0.879 -3.788,-2.06 -5.272,-3.545c-1.485,-1.485 -2.667,-3.227 -3.546,-5.227c-0.878,-2 -1.318,-4.152 -1.318,-6.455c0,-2.242 0.44,-4.378 1.318,-6.408c0.879,-2.031 2.061,-3.788 3.546,-5.273c1.484,-1.485 3.242,-2.667 5.272,-3.545c2.03,-0.879 4.197,-1.318 6.5,-1.318c2.303,-0 4.47,0.439 6.5,1.318c2.03,0.878 3.803,2.06 5.318,3.545c1.515,1.485 2.712,3.242 3.591,5.273c0.878,2.03 1.318,4.166 1.318,6.408Zm-4.273,123.814l-24.999,0l-0,-97.36l24.999,0l0,97.36Z" style="fill-rule:nonzero;"/></g></g><defs><linearGradient id="_Linear1" x1="0" y1="0" x2="1" y2="0" gradientUnits="userSpaceOnUse" gradientTransform="matrix(-110.611,146.634,-146.634,-110.611,140.923,33.8147)"><stop offset="0" style="stop-color:#ae00fe;stop-opacity:1"/><stop offset="1" style="stop-color:#4000ae;stop-opacity:1"/></linearGradient></defs></svg>